<mxfile host="app.diagrams.net" agent="Mozilla/5.0 (Macintosh; Intel Mac OS X 10_15_7) AppleWebKit/605.1.15 (KHTML, like Gecko) Version/18.1 Safari/605.1.15" version="24.8.4">
  <diagram name="Page-1" id="Dl-3uJgMwj25uqsxjVLA">
    <mxGraphModel dx="846" dy="988" grid="0" gridSize="10" guides="1" tooltips="1" connect="1" arrows="1" fold="1" page="0" pageScale="1" pageWidth="827" pageHeight="1169" math="0" shadow="0">
      <root>
        <mxCell id="0" />
        <mxCell id="1" parent="0" />
        <mxCell id="C5Iw_sI8F1PWmTKsifWp-1" value="start" style="ellipse;whiteSpace=wrap;html=1;" vertex="1" parent="1">
          <mxGeometry x="267" y="-176" width="120" height="80" as="geometry" />
        </mxCell>
        <mxCell id="C5Iw_sI8F1PWmTKsifWp-4" value="" style="edgeStyle=none;curved=1;rounded=0;orthogonalLoop=1;jettySize=auto;html=1;fontSize=12;startSize=8;endSize=8;" edge="1" parent="1" source="C5Iw_sI8F1PWmTKsifWp-2" target="C5Iw_sI8F1PWmTKsifWp-3">
          <mxGeometry relative="1" as="geometry" />
        </mxCell>
        <mxCell id="C5Iw_sI8F1PWmTKsifWp-2" value="Membuka vscode" style="rounded=0;whiteSpace=wrap;html=1;" vertex="1" parent="1">
          <mxGeometry x="-1" y="-47" width="120" height="60" as="geometry" />
        </mxCell>
        <mxCell id="C5Iw_sI8F1PWmTKsifWp-6" value="" style="edgeStyle=none;curved=1;rounded=0;orthogonalLoop=1;jettySize=auto;html=1;fontSize=12;startSize=8;endSize=8;" edge="1" parent="1" source="C5Iw_sI8F1PWmTKsifWp-3" target="C5Iw_sI8F1PWmTKsifWp-5">
          <mxGeometry relative="1" as="geometry" />
        </mxCell>
        <mxCell id="C5Iw_sI8F1PWmTKsifWp-3" value="membuka web boostrap" style="rounded=0;whiteSpace=wrap;html=1;" vertex="1" parent="1">
          <mxGeometry x="172" y="-47" width="120" height="60" as="geometry" />
        </mxCell>
        <mxCell id="C5Iw_sI8F1PWmTKsifWp-8" value="" style="edgeStyle=none;curved=1;rounded=0;orthogonalLoop=1;jettySize=auto;html=1;fontSize=12;startSize=8;endSize=8;" edge="1" parent="1" source="C5Iw_sI8F1PWmTKsifWp-5" target="C5Iw_sI8F1PWmTKsifWp-7">
          <mxGeometry relative="1" as="geometry" />
        </mxCell>
        <mxCell id="C5Iw_sI8F1PWmTKsifWp-5" value="search starting temp;late di bs &amp;amp; copy" style="rounded=0;whiteSpace=wrap;html=1;" vertex="1" parent="1">
          <mxGeometry x="350" y="-47" width="120" height="60" as="geometry" />
        </mxCell>
        <mxCell id="C5Iw_sI8F1PWmTKsifWp-10" value="" style="edgeStyle=none;curved=1;rounded=0;orthogonalLoop=1;jettySize=auto;html=1;fontSize=12;startSize=8;endSize=8;" edge="1" parent="1" source="C5Iw_sI8F1PWmTKsifWp-7" target="C5Iw_sI8F1PWmTKsifWp-9">
          <mxGeometry relative="1" as="geometry" />
        </mxCell>
        <mxCell id="C5Iw_sI8F1PWmTKsifWp-7" value="buka bs cari navbar dan pilih template" style="rhombus;whiteSpace=wrap;html=1;rounded=0;" vertex="1" parent="1">
          <mxGeometry x="544" y="-98.5" width="163" height="163" as="geometry" />
        </mxCell>
        <mxCell id="C5Iw_sI8F1PWmTKsifWp-12" value="" style="edgeStyle=none;curved=1;rounded=0;orthogonalLoop=1;jettySize=auto;html=1;fontSize=12;startSize=8;endSize=8;" edge="1" parent="1" source="C5Iw_sI8F1PWmTKsifWp-9" target="C5Iw_sI8F1PWmTKsifWp-11">
          <mxGeometry relative="1" as="geometry" />
        </mxCell>
        <mxCell id="C5Iw_sI8F1PWmTKsifWp-9" value="copy nabber ke viscose" style="whiteSpace=wrap;html=1;rounded=0;" vertex="1" parent="1">
          <mxGeometry x="565.5" y="116" width="120" height="60" as="geometry" />
        </mxCell>
        <mxCell id="C5Iw_sI8F1PWmTKsifWp-14" value="" style="edgeStyle=none;curved=1;rounded=0;orthogonalLoop=1;jettySize=auto;html=1;fontSize=12;startSize=8;endSize=8;entryX=1;entryY=0.5;entryDx=0;entryDy=0;" edge="1" parent="1" source="C5Iw_sI8F1PWmTKsifWp-11" target="C5Iw_sI8F1PWmTKsifWp-15">
          <mxGeometry relative="1" as="geometry">
            <mxPoint x="205.50000000000023" y="137" as="targetPoint" />
          </mxGeometry>
        </mxCell>
        <mxCell id="C5Iw_sI8F1PWmTKsifWp-11" value="ubah navbar dengan about me, education, find, contact" style="whiteSpace=wrap;html=1;rounded=0;" vertex="1" parent="1">
          <mxGeometry x="401" y="111" width="120" height="60" as="geometry" />
        </mxCell>
        <mxCell id="C5Iw_sI8F1PWmTKsifWp-417" value="" style="edgeStyle=none;curved=1;rounded=0;orthogonalLoop=1;jettySize=auto;html=1;fontSize=12;startSize=8;endSize=8;" edge="1" parent="1" source="C5Iw_sI8F1PWmTKsifWp-15" target="C5Iw_sI8F1PWmTKsifWp-416">
          <mxGeometry relative="1" as="geometry" />
        </mxCell>
        <mxCell id="C5Iw_sI8F1PWmTKsifWp-15" value="&lt;span style=&quot;caret-color: rgb(0, 0, 0); color: rgb(0, 0, 0); font-family: Helvetica; font-size: 12px; font-style: normal; font-variant-caps: normal; font-weight: 400; letter-spacing: normal; orphans: auto; text-align: center; text-indent: 0px; text-transform: none; white-space: normal; widows: auto; word-spacing: 0px; -webkit-text-stroke-width: 0px; background-color: rgb(255, 255, 255); text-decoration: none; display: inline !important; float: none;&quot;&gt;buka bs cari jumbotron &amp;amp; pilih tempalte&lt;/span&gt;" style="rhombus;whiteSpace=wrap;html=1;" vertex="1" parent="1">
          <mxGeometry x="176" y="58" width="192" height="166" as="geometry" />
        </mxCell>
        <mxCell id="C5Iw_sI8F1PWmTKsifWp-419" value="" style="edgeStyle=none;curved=1;rounded=0;orthogonalLoop=1;jettySize=auto;html=1;fontSize=12;startSize=8;endSize=8;" edge="1" parent="1" source="C5Iw_sI8F1PWmTKsifWp-416" target="C5Iw_sI8F1PWmTKsifWp-418">
          <mxGeometry relative="1" as="geometry" />
        </mxCell>
        <mxCell id="C5Iw_sI8F1PWmTKsifWp-416" value="copy Jumbotron ke viscose" style="whiteSpace=wrap;html=1;" vertex="1" parent="1">
          <mxGeometry x="12" y="111" width="120" height="60" as="geometry" />
        </mxCell>
        <mxCell id="C5Iw_sI8F1PWmTKsifWp-421" value="" style="edgeStyle=none;curved=1;rounded=0;orthogonalLoop=1;jettySize=auto;html=1;fontSize=12;startSize=8;endSize=8;" edge="1" parent="1" source="C5Iw_sI8F1PWmTKsifWp-418" target="C5Iw_sI8F1PWmTKsifWp-420">
          <mxGeometry relative="1" as="geometry" />
        </mxCell>
        <mxCell id="C5Iw_sI8F1PWmTKsifWp-418" value="ubah jumbotron sesuai dengan kebutuhan" style="whiteSpace=wrap;html=1;" vertex="1" parent="1">
          <mxGeometry x="12" y="291" width="120" height="60" as="geometry" />
        </mxCell>
        <mxCell id="C5Iw_sI8F1PWmTKsifWp-423" value="" style="edgeStyle=none;curved=1;rounded=0;orthogonalLoop=1;jettySize=auto;html=1;fontSize=12;startSize=8;endSize=8;" edge="1" parent="1" source="C5Iw_sI8F1PWmTKsifWp-420" target="C5Iw_sI8F1PWmTKsifWp-422">
          <mxGeometry relative="1" as="geometry" />
        </mxCell>
        <mxCell id="C5Iw_sI8F1PWmTKsifWp-420" value="buat code untuk navbar" style="whiteSpace=wrap;html=1;" vertex="1" parent="1">
          <mxGeometry x="162" y="291" width="120" height="60" as="geometry" />
        </mxCell>
        <mxCell id="C5Iw_sI8F1PWmTKsifWp-425" value="" style="edgeStyle=none;curved=1;rounded=0;orthogonalLoop=1;jettySize=auto;html=1;fontSize=12;startSize=8;endSize=8;" edge="1" parent="1" source="C5Iw_sI8F1PWmTKsifWp-422" target="C5Iw_sI8F1PWmTKsifWp-424">
          <mxGeometry relative="1" as="geometry" />
        </mxCell>
        <mxCell id="C5Iw_sI8F1PWmTKsifWp-422" value="tambahkan code inflame&amp;amp; h1" style="whiteSpace=wrap;html=1;" vertex="1" parent="1">
          <mxGeometry x="321" y="291" width="120" height="60" as="geometry" />
        </mxCell>
        <mxCell id="C5Iw_sI8F1PWmTKsifWp-431" value="" style="edgeStyle=none;curved=1;rounded=0;orthogonalLoop=1;jettySize=auto;html=1;fontSize=12;startSize=8;endSize=8;" edge="1" parent="1" source="C5Iw_sI8F1PWmTKsifWp-424" target="C5Iw_sI8F1PWmTKsifWp-430">
          <mxGeometry relative="1" as="geometry" />
        </mxCell>
        <mxCell id="C5Iw_sI8F1PWmTKsifWp-424" value="buat code untuk education" style="whiteSpace=wrap;html=1;" vertex="1" parent="1">
          <mxGeometry x="477" y="291" width="120" height="60" as="geometry" />
        </mxCell>
        <mxCell id="C5Iw_sI8F1PWmTKsifWp-427" value="" style="endArrow=classic;html=1;rounded=0;fontSize=12;startSize=8;endSize=8;curved=1;exitX=0;exitY=0.5;exitDx=0;exitDy=0;entryX=0.5;entryY=0;entryDx=0;entryDy=0;" edge="1" parent="1" source="C5Iw_sI8F1PWmTKsifWp-1" target="C5Iw_sI8F1PWmTKsifWp-2">
          <mxGeometry width="50" height="50" relative="1" as="geometry">
            <mxPoint x="387" y="177" as="sourcePoint" />
            <mxPoint x="437" y="127" as="targetPoint" />
            <Array as="points">
              <mxPoint x="152" y="-150" />
            </Array>
          </mxGeometry>
        </mxCell>
        <mxCell id="C5Iw_sI8F1PWmTKsifWp-433" value="" style="edgeStyle=none;curved=1;rounded=0;orthogonalLoop=1;jettySize=auto;html=1;fontSize=12;startSize=8;endSize=8;" edge="1" parent="1" source="C5Iw_sI8F1PWmTKsifWp-430" target="C5Iw_sI8F1PWmTKsifWp-432">
          <mxGeometry relative="1" as="geometry" />
        </mxCell>
        <mxCell id="C5Iw_sI8F1PWmTKsifWp-430" value="tambhkan code untuk membuat tabel organisasi pendidikan&amp;nbsp;" style="whiteSpace=wrap;html=1;" vertex="1" parent="1">
          <mxGeometry x="627" y="291" width="120" height="60" as="geometry" />
        </mxCell>
        <mxCell id="C5Iw_sI8F1PWmTKsifWp-435" value="" style="edgeStyle=none;curved=1;rounded=0;orthogonalLoop=1;jettySize=auto;html=1;fontSize=12;startSize=8;endSize=8;" edge="1" parent="1" source="C5Iw_sI8F1PWmTKsifWp-432" target="C5Iw_sI8F1PWmTKsifWp-434">
          <mxGeometry relative="1" as="geometry" />
        </mxCell>
        <mxCell id="C5Iw_sI8F1PWmTKsifWp-432" value="buka bs cari form dan pilih&amp;nbsp;" style="rhombus;whiteSpace=wrap;html=1;" vertex="1" parent="1">
          <mxGeometry x="615.5" y="391" width="143" height="144" as="geometry" />
        </mxCell>
        <mxCell id="C5Iw_sI8F1PWmTKsifWp-437" value="" style="edgeStyle=none;curved=1;rounded=0;orthogonalLoop=1;jettySize=auto;html=1;fontSize=12;startSize=8;endSize=8;" edge="1" parent="1" source="C5Iw_sI8F1PWmTKsifWp-434" target="C5Iw_sI8F1PWmTKsifWp-436">
          <mxGeometry relative="1" as="geometry" />
        </mxCell>
        <mxCell id="C5Iw_sI8F1PWmTKsifWp-434" value="copy form di vscode untuk membuat code para find me" style="whiteSpace=wrap;html=1;" vertex="1" parent="1">
          <mxGeometry x="462" y="433" width="120" height="60" as="geometry" />
        </mxCell>
        <mxCell id="C5Iw_sI8F1PWmTKsifWp-439" value="" style="edgeStyle=none;curved=1;rounded=0;orthogonalLoop=1;jettySize=auto;html=1;fontSize=12;startSize=8;endSize=8;" edge="1" parent="1" source="C5Iw_sI8F1PWmTKsifWp-436" target="C5Iw_sI8F1PWmTKsifWp-438">
          <mxGeometry relative="1" as="geometry" />
        </mxCell>
        <mxCell id="C5Iw_sI8F1PWmTKsifWp-436" value="sesuaikan code&amp;nbsp;" style="whiteSpace=wrap;html=1;" vertex="1" parent="1">
          <mxGeometry x="316" y="433" width="120" height="60" as="geometry" />
        </mxCell>
        <mxCell id="C5Iw_sI8F1PWmTKsifWp-441" value="" style="edgeStyle=none;curved=1;rounded=0;orthogonalLoop=1;jettySize=auto;html=1;fontSize=12;startSize=8;endSize=8;" edge="1" parent="1" source="C5Iw_sI8F1PWmTKsifWp-438" target="C5Iw_sI8F1PWmTKsifWp-440">
          <mxGeometry relative="1" as="geometry" />
        </mxCell>
        <mxCell id="C5Iw_sI8F1PWmTKsifWp-438" value="tambhakna img sosmed" style="whiteSpace=wrap;html=1;" vertex="1" parent="1">
          <mxGeometry x="169" y="433" width="120" height="60" as="geometry" />
        </mxCell>
        <mxCell id="C5Iw_sI8F1PWmTKsifWp-443" value="" style="edgeStyle=none;curved=1;rounded=0;orthogonalLoop=1;jettySize=auto;html=1;fontSize=12;startSize=8;endSize=8;" edge="1" parent="1" source="C5Iw_sI8F1PWmTKsifWp-440" target="C5Iw_sI8F1PWmTKsifWp-442">
          <mxGeometry relative="1" as="geometry" />
        </mxCell>
        <mxCell id="C5Iw_sI8F1PWmTKsifWp-440" value="masukan link href dan target blank" style="whiteSpace=wrap;html=1;" vertex="1" parent="1">
          <mxGeometry x="16" y="433" width="120" height="60" as="geometry" />
        </mxCell>
        <mxCell id="C5Iw_sI8F1PWmTKsifWp-445" value="" style="edgeStyle=none;curved=1;rounded=0;orthogonalLoop=1;jettySize=auto;html=1;fontSize=12;startSize=8;endSize=8;" edge="1" parent="1" source="C5Iw_sI8F1PWmTKsifWp-442" target="C5Iw_sI8F1PWmTKsifWp-444">
          <mxGeometry relative="1" as="geometry" />
        </mxCell>
        <mxCell id="C5Iw_sI8F1PWmTKsifWp-442" value="buka bs cari form &amp;amp; pilih" style="rhombus;whiteSpace=wrap;html=1;" vertex="1" parent="1">
          <mxGeometry x="16" y="556" width="120" height="132" as="geometry" />
        </mxCell>
        <mxCell id="C5Iw_sI8F1PWmTKsifWp-447" value="" style="edgeStyle=none;curved=1;rounded=0;orthogonalLoop=1;jettySize=auto;html=1;fontSize=12;startSize=8;endSize=8;" edge="1" parent="1" source="C5Iw_sI8F1PWmTKsifWp-444" target="C5Iw_sI8F1PWmTKsifWp-446">
          <mxGeometry relative="1" as="geometry" />
        </mxCell>
        <mxCell id="C5Iw_sI8F1PWmTKsifWp-444" value="copy form di vscode untuk membuat code para contact me" style="whiteSpace=wrap;html=1;" vertex="1" parent="1">
          <mxGeometry x="176" y="592" width="120" height="60" as="geometry" />
        </mxCell>
        <mxCell id="C5Iw_sI8F1PWmTKsifWp-449" value="" style="edgeStyle=none;curved=1;rounded=0;orthogonalLoop=1;jettySize=auto;html=1;fontSize=12;startSize=8;endSize=8;" edge="1" parent="1" source="C5Iw_sI8F1PWmTKsifWp-446" target="C5Iw_sI8F1PWmTKsifWp-448">
          <mxGeometry relative="1" as="geometry" />
        </mxCell>
        <mxCell id="C5Iw_sI8F1PWmTKsifWp-446" value="sesuaikan code" style="whiteSpace=wrap;html=1;" vertex="1" parent="1">
          <mxGeometry x="327" y="592" width="120" height="60" as="geometry" />
        </mxCell>
        <mxCell id="C5Iw_sI8F1PWmTKsifWp-453" value="" style="edgeStyle=none;curved=1;rounded=0;orthogonalLoop=1;jettySize=auto;html=1;fontSize=12;startSize=8;endSize=8;" edge="1" parent="1" source="C5Iw_sI8F1PWmTKsifWp-448" target="C5Iw_sI8F1PWmTKsifWp-452">
          <mxGeometry relative="1" as="geometry" />
        </mxCell>
        <mxCell id="C5Iw_sI8F1PWmTKsifWp-448" value="menambahkan code untuk membuat footer" style="whiteSpace=wrap;html=1;" vertex="1" parent="1">
          <mxGeometry x="486" y="592" width="120" height="60" as="geometry" />
        </mxCell>
        <mxCell id="C5Iw_sI8F1PWmTKsifWp-452" value="end" style="ellipse;whiteSpace=wrap;html=1;" vertex="1" parent="1">
          <mxGeometry x="645" y="594" width="80" height="56" as="geometry" />
        </mxCell>
      </root>
    </mxGraphModel>
  </diagram>
</mxfile>
